<?xml version="1.0" encoding="iso-8859-1"?>
<!-- Generator: Adobe Illustrator 19.0.0, SVG Export Plug-In . SVG Version: 6.00 Build 0)  -->
<svg version="1.1" id="Layer_1" xmlns="http://www.w3.org/2000/svg" xmlns:xlink="http://www.w3.org/1999/xlink" x="0px" y="0px"
	 viewBox="0 0 481.875 481.875" style="enable-background:new 0 0 481.875 481.875;" xml:space="preserve">
<g>
	<g>
		<polygon points="463.356,229.099 440.625,291.93 75.846,291.93 75.846,19.522 0,19.522 0,39.214 56.154,39.214 56.154,311.623 
			454.433,311.623 481.875,235.8 		"/>
	</g>
</g>
<g>
	<g>
		<path d="M335.971,340.325c-33.644,0-61.01,27.37-61.01,61.014c0,33.644,27.365,61.014,61.01,61.014s61.019-27.37,61.019-61.014
			C396.99,367.695,369.615,340.325,335.971,340.325z M335.971,442.661c-22.779,0-41.317-18.538-41.317-41.322
			c0-22.784,18.538-41.322,41.317-41.322c22.788,0,41.327,18.538,41.327,41.322C377.298,424.123,358.76,442.661,335.971,442.661z"/>
	</g>
</g>
<g>
	<g>
		<path d="M145.308,340.325c-33.644,0-61.014,27.37-61.014,61.014c0,33.644,27.37,61.014,61.014,61.014s61.014-27.37,61.014-61.014
			C206.322,367.695,178.952,340.325,145.308,340.325z M145.308,442.661c-22.784,0-41.322-18.538-41.322-41.322
			c0-22.784,18.538-41.322,41.322-41.322c22.784,0,41.322,18.538,41.322,41.322C186.63,424.123,168.091,442.661,145.308,442.661z"/>
	</g>
</g>
<g>
</g>
<g>
</g>
<g>
</g>
<g>
</g>
<g>
</g>
<g>
</g>
<g>
</g>
<g>
</g>
<g>
</g>
<g>
</g>
<g>
</g>
<g>
</g>
<g>
</g>
<g>
</g>
<g>
</g>
</svg>
